<?xml version="1.0" encoding="utf-8"?>
<!-- Generator: Adobe Illustrator 27.1.1, SVG Export Plug-In . SVG Version: 6.00 Build 0)  -->
<svg version="1.1" id="Ebene_1" xmlns="http://www.w3.org/2000/svg" xmlns:xlink="http://www.w3.org/1999/xlink" x="0px" y="0px"
	 viewBox="0 0 226 62" style="enable-background:new 0 0 226 62;" xml:space="preserve">
<style type="text/css">
	.st0{fill:#FFFFFF;}
	.st1{fill-rule:evenodd;clip-rule:evenodd;fill:#FFFFFF;}
</style>
<g>
	<g>
		<g>
			<path class="st0" d="M112.4,49.7l-0.9,1L111,50l1.5-1.4h0.8v7.3h-0.9V49.7z"/>
			<path class="st0" d="M115.9,54.9c0.2,0.1,0.3,0.2,0.5,0.2c0.2,0.1,0.4,0.1,0.6,0.1c0.3,0,0.6-0.1,0.8-0.2
				c0.2-0.1,0.4-0.3,0.6-0.6c0.2-0.3,0.3-0.6,0.4-0.9c0.1-0.4,0.1-0.7,0.1-1.2h0c-0.1,0.3-0.3,0.5-0.6,0.7c-0.3,0.2-0.5,0.2-0.9,0.2
				c-0.3,0-0.6-0.1-0.8-0.2c-0.2-0.1-0.4-0.3-0.6-0.5c-0.2-0.2-0.3-0.5-0.4-0.7c-0.1-0.3-0.1-0.6-0.1-0.8c0-0.4,0.1-0.8,0.2-1.1
				c0.1-0.3,0.3-0.5,0.4-0.7c0.2-0.2,0.4-0.4,0.7-0.5c0.3-0.1,0.5-0.2,0.8-0.2c0.4,0,0.7,0.1,1,0.2c0.3,0.2,0.5,0.4,0.7,0.7
				c0.2,0.3,0.3,0.7,0.4,1.1c0.1,0.4,0.1,0.9,0.1,1.4c0,2.7-0.9,4-2.7,4c-0.2,0-0.4,0-0.7-0.1c-0.2,0-0.4-0.1-0.6-0.2L115.9,54.9z
				 M116.5,50.9c0,0.2,0,0.4,0.1,0.6c0,0.2,0.1,0.4,0.2,0.5c0.1,0.1,0.2,0.3,0.4,0.4c0.1,0.1,0.3,0.1,0.5,0.1c0.2,0,0.4,0,0.5-0.1
				c0.1-0.1,0.3-0.2,0.4-0.4c0.1-0.1,0.2-0.3,0.2-0.5c0-0.2,0.1-0.4,0.1-0.6c0-0.2,0-0.4-0.1-0.6c0-0.2-0.1-0.4-0.2-0.5
				c-0.1-0.2-0.2-0.3-0.4-0.4c-0.1-0.1-0.3-0.1-0.5-0.1c-0.2,0-0.4,0-0.5,0.1c-0.1,0.1-0.3,0.2-0.4,0.4c-0.1,0.2-0.2,0.3-0.2,0.5
				C116.5,50.5,116.5,50.7,116.5,50.9z"/>
			<path class="st0" d="M121.3,52.3c0-1.2,0.2-2.1,0.5-2.8c0.4-0.6,0.9-0.9,1.6-0.9c0.7,0,1.2,0.3,1.6,0.9c0.4,0.6,0.5,1.5,0.5,2.8
				c0,1.2-0.2,2.1-0.5,2.8c-0.4,0.6-0.9,0.9-1.6,0.9c-0.7,0-1.2-0.3-1.6-0.9C121.5,54.4,121.3,53.5,121.3,52.3z M122.2,52.3
				c0,1,0.1,1.8,0.3,2.2c0.2,0.5,0.5,0.7,0.9,0.7c0.4,0,0.7-0.2,0.9-0.7c0.2-0.5,0.3-1.2,0.3-2.2c0-1-0.1-1.8-0.3-2.2
				c-0.2-0.5-0.5-0.7-0.9-0.7c-0.4,0-0.7,0.2-0.9,0.7C122.3,50.5,122.2,51.2,122.2,52.3z"/>
			<path class="st0" d="M129.5,54.2h-2.9v-0.9l2.6-4.7h1.1v4.9h0.8v0.7h-0.8v1.6h-0.9V54.2z M129.5,49.5L129.5,49.5l-2.1,4h2.1V49.5
				z"/>
		</g>
		<g>
			<g>
				<line class="st0" x1="135.3" y1="52.3" x2="161.5" y2="52.3"/>
				<rect x="135.3" y="52" class="st0" width="26.2" height="0.6"/>
			</g>
			<g>
				<line class="st0" x1="79.2" y1="52.3" x2="105.5" y2="52.3"/>
				<rect x="79.2" y="52" class="st0" width="26.2" height="0.6"/>
			</g>
		</g>
	</g>
	<path class="st1" d="M112.5,25.5c-0.3,0.1-0.9-0.5-0.9-0.5s1-0.2,1.3-0.5C112.9,24.5,112.8,25.4,112.5,25.5L112.5,25.5L112.5,25.5z
		 M113.5,24.4c0,0-1.6-1.3-1.7-1.2c-0.1,0-0.8,2.2-0.8,2.2s0.8-1.3,0.9-1.4C112,24,113.5,24.4,113.5,24.4L113.5,24.4L113.5,24.4z
		 M117,21.3c0,0,2.1-0.1,2.5-0.1c0.4,0.1,2.1,0.9,2.4,1.1c0.3,0.2,1.8,2.1,2,2.4c0.2,0.4,1.2,2.9,1.4,3.4c0.1,0.5,1.4,6.9,1.6,7.1
		c0.3,0.5,1.9,1.5,1.9,1.5s-0.8,0.6-1.1,0.6c-0.3,0.1-0.9,0.1-1.1-0.1c-0.2-0.1-0.6-0.6-0.7-0.9c-0.2-0.3-1.8-9.3-1.9-9.6
		c-0.1-0.4-0.6-1.4-0.7-1.7c-0.1-0.3-1.5-2.3-1.7-2.4c-0.2-0.1-1.6-1-2-1.1C119.1,21.5,117,21.3,117,21.3L117,21.3L117,21.3z
		 M110.7,19.3c0,0-3.8-2.7-10.2-9.3c3.4,3,9.3,8.2,11.4,9.5C112.2,19.7,110.7,19.3,110.7,19.3L110.7,19.3L110.7,19.3z M112.6,17.9
		l2.4,2.6c0,0,0.3-0.4,0.3-0.5c0-0.1-0.2-0.8-0.3-0.9C114.9,18.9,112.6,17.9,112.6,17.9L112.6,17.9L112.6,17.9z M106.9,30.7
		c0,0,0.5,0.5,0.6,0.6c0,0.2-0.4,1-0.4,1s0.1-0.8,0.1-0.9C107.1,31.2,106.9,30.7,106.9,30.7L106.9,30.7L106.9,30.7z M111,28.3
		c-0.2,0.2-0.3,1.3-0.3,1.3l2.5-2.5C113.2,27.1,111.2,28.1,111,28.3L111,28.3z M113,34.1c0,0,0,0.9,0,1.1c0,0.1,0.1,0.6,0.1,0.6
		s-0.4-0.4-0.4-0.5C112.7,35.3,113,34.1,113,34.1L113,34.1z M112.9,31.7c0,0,0.7,0.5,0.8,0.6c0.1,0.1,1,1.4,1,1.4s-0.7-1.9-0.8-1.9
		C113.8,31.7,112.9,31.7,112.9,31.7L112.9,31.7z M109.9,34c0,0,0.3-0.1,0.4-0.1c0.1,0,0.7-0.5,0.7-0.5s-0.6,0.6-0.7,0.7
		C110.2,34.1,109.9,34,109.9,34L109.9,34z M117.5,28.2c-0.1,0.2-0.8,1-0.8,1.3c0,0.3,0.5,1.2,0.5,1.6c0.1,0.3-0.1,7.3,0.6,11
		c0.3,1.6,2.2,1.8,3.3,1.7c1.1-0.1,3.7-1.1,3.7-1.1s-2.3-2.4-2.4-2.6c-0.1-0.2,0.4-2.4,0.3-2.6c-0.1-0.3-1.8-1.3-1.9-1.7
		c-0.1-0.3-0.2-4.3-0.2-4.3s-0.6-4-0.8-4.2c-0.2-0.2-2.6-0.9-2.6-0.9S117.6,27.9,117.5,28.2L117.5,28.2z M123.7,20.1
		c0.3-0.3,2.2-0.5,3.2-1.2c-0.1,0.8-1.3,1.6-1.1,2.4c0.4-0.4,1.8-0.1,2.3,0.1c0.2,0.1,0.6-0.2,0.9,0c-0.3,0.2-0.6,0.4-1.1,0.5
		c-0.5,0-1.2,1.1-1.2,1.1c2-2,2.3,1.6,3.5,0c-0.7,2.1-1.9,2.5-1.9,2.5c1.1-0.5,3.4,0.3,3.9,1.5c-2.1-0.7-1.1,0.6-0.2,2
		c-1.5-1.1-2.4-0.4-2.4-0.4c3,0.7,0.6,1.5,4.1,1.5c-1.4,2.2-2.7,0.5-3.4,1.4c0.6,0.4,3.9,0.8,4.1,2.8c-2.7-1.7-1.8,0.5-3.8,0.3
		c0.5,0,1.7,2,4.3,1c-0.4,2.1-4.9,2-4.8,3.4c0.2,1.9-4.2,4-4.2,4s-3.5,1.4-4.7,1.5c-1.3,0.1-3.5-0.2-3.9-2.2
		c-0.7-3.7-0.5-10.7-0.6-11c0-0.3-0.4-1.4-0.5-1.5c-0.1-0.1-1.2,0-1.6,0.1c-0.3,0.1-1.9,1.6-1.9,1.6s1.2-0.1,1.3,0
		c0.1,0.1,0.9,2.2,1,2.3c0.1,0.1,0.9,0.3,0.9,0.3s-0.9,0.9-1,0.9c-0.1,0-1-0.4-1.1-0.3c-0.1,0.1,0.2,1.3,0.1,1.5
		c-0.1,0.1-0.6,0.2-0.8,0.2c-0.1-0.1-0.5-0.7-0.6-0.8c-0.1-0.2,0.2-1.3,0.2-1.4c-0.1-0.1-0.6-0.8-0.7-0.8c-0.2,0-0.6,0.1-0.8,0.2
		c-0.2,0.1-0.6,0.7-0.8,0.8c-0.2,0.1-0.3,0.1-0.6,0c-0.2-0.1-0.6-0.9-0.6-1c0-0.1,1.2-1.8,1.2-1.8s-1.6,2-1.8,2.1
		c-0.2,0.1-0.9,0.1-1.1,0.1c-0.3,0-0.5-0.1-0.8-0.4c-0.2-0.3-0.5-1.6-0.5-2.1c0-0.4,0.2-1.2,0.4-1.7c0.2-0.5,3.8-7.4,4.4-8.2
		c0,0-13-11.7-14.3-15.2l0,0c1,1.2,14.5,13.4,15.9,13.4l0.1-0.1l-1-1.1l1.3,0.5l-0.9-1.2l1.4,0.6c0.1,0,2.4-1.3,3-1.2
		c0.2,0,1.5,0.2,1.7,0.1c0.2-0.1,1.4-0.5,1.6-0.4c0.1,0.3,1.7,1.3,1.7,1.3c1-0.4,2.8,0.6,4.1,0.2C125.5,18.4,123.7,20.1,123.7,20.1
		L123.7,20.1z"/>
	<path class="st0" d="M22.3,33.2h2.4c0.7,0,1.3,0.1,1.8,0.2c0.4,0.2,0.8,0.3,1.1,0.6c0.2,0.2,0.5,0.4,0.7,0.6
		c0.2,0.3,0.5,0.6,0.6,0.9c0.2,0.4,0.3,0.8,0.5,1.3c0.1,0.5,0.2,1,0.2,1.6c0,0.8-0.1,1.5-0.3,2.2c-0.2,0.7-0.5,1.3-1,1.8
		c-0.4,0.5-1,0.9-1.7,1.2c-0.7,0.3-1.6,0.4-2.6,0.4h-1.7V33.2z M23.7,42.9h0.8c1.2,0,2.1-0.4,2.7-1.2c0.6-0.8,0.9-1.9,0.9-3.3
		c0-0.6-0.1-1.1-0.2-1.6c-0.1-0.5-0.3-0.9-0.6-1.3c-0.3-0.4-0.7-0.7-1.1-0.9c-0.5-0.2-1-0.3-1.7-0.3h-0.8V42.9z"/>
	<path class="st0" d="M32,33.2h1.4v10.9H32V33.2z"/>
	<path class="st0" d="M36.7,33.2h5.1v1.2h-3.7v3.5h3.5V39h-3.5v3.9H42v1.2h-5.3V33.2z"/>
	<path class="st0" d="M51,43.8c-0.3,0.1-0.7,0.2-1,0.2c-0.3,0.1-0.7,0.1-1,0.1c-0.9,0-1.6-0.2-2.2-0.5c-0.6-0.3-1.1-0.7-1.5-1.2
		c-0.4-0.5-0.7-1.1-0.9-1.8c-0.2-0.7-0.3-1.4-0.3-2.1c0-0.9,0.1-1.6,0.4-2.3c0.2-0.7,0.6-1.3,1-1.7c0.4-0.5,0.9-0.8,1.5-1.1
		c0.6-0.3,1.2-0.4,1.9-0.4c0.4,0,0.8,0,1.1,0.1c0.4,0.1,0.7,0.2,0.9,0.3v1.3c-0.6-0.4-1.3-0.5-2-0.5c-0.4,0-0.9,0.1-1.3,0.3
		c-0.4,0.2-0.8,0.4-1.1,0.8c-0.3,0.3-0.6,0.8-0.7,1.3c-0.2,0.5-0.3,1.1-0.3,1.8c0,0.7,0.1,1.3,0.2,1.9c0.1,0.6,0.4,1.1,0.6,1.5
		c0.3,0.4,0.7,0.7,1.1,0.9c0.4,0.2,1,0.3,1.5,0.3c0.4,0,0.7,0,1-0.1c0.3-0.1,0.6-0.2,0.9-0.4V43.8z"/>
	<path class="st0" d="M53.1,33.2h1.4v4.7h0l3.6-4.7h1.6l-4.1,5.1l4.4,5.7h-1.8l-3.8-5.3h0v5.3h-1.4V33.2z"/>
	<path class="st0" d="M61.6,33.2h2.1l2.7,8.6h0l2.8-8.6h2.1v10.9H70v-9.4h0l-3.1,9.4h-1l-3-9.4h0v9.4h-1.3V33.2z"/>
	<path class="st0" d="M78.4,33.2L82,44.1h-1.4l-0.9-2.8h-4.1l-0.9,2.8h-1.4l3.6-10.9H78.4z M79.3,40l-1.7-5.4h0L75.9,40H79.3z"/>
	<path class="st0" d="M83.9,33.2h1.7l4.1,9h0v-9h1.3v10.9h-1.7l-4.1-8.9h0v8.9h-1.3V33.2z"/>
	<path class="st0" d="M94.1,33.2h1.7l4.1,9h0v-9h1.3v10.9h-1.7l-4.1-8.9h0v8.9h-1.3V33.2z"/>
	<path class="st0" d="M144.2,34.8c-0.3-0.2-0.6-0.3-0.9-0.4c-0.3-0.1-0.6-0.1-1-0.1c-0.5,0-0.9,0.2-1.2,0.5
		c-0.3,0.3-0.5,0.7-0.5,1.2c0,0.2,0,0.3,0.1,0.5c0,0.2,0.1,0.3,0.3,0.5c0.1,0.2,0.3,0.3,0.6,0.5c0.2,0.2,0.6,0.4,1,0.6
		c0.4,0.2,0.8,0.5,1.1,0.7c0.3,0.2,0.5,0.5,0.7,0.8c0.2,0.3,0.3,0.5,0.4,0.8c0.1,0.3,0.1,0.6,0.1,0.9c0,0.4-0.1,0.8-0.2,1.2
		c-0.1,0.4-0.3,0.7-0.6,1c-0.3,0.3-0.6,0.5-1,0.7c-0.4,0.2-0.9,0.2-1.4,0.2c-0.4,0-0.9,0-1.2-0.1c-0.4-0.1-0.7-0.2-1-0.3v-1.4
		c0.3,0.2,0.7,0.4,1,0.5c0.4,0.1,0.7,0.2,1,0.2c0.3,0,0.6,0,0.8-0.1c0.2-0.1,0.4-0.2,0.6-0.4c0.2-0.2,0.3-0.3,0.4-0.6
		c0.1-0.2,0.1-0.4,0.1-0.6c0-0.2,0-0.4-0.1-0.6c0-0.2-0.1-0.3-0.2-0.5c-0.1-0.2-0.3-0.3-0.5-0.5c-0.2-0.2-0.5-0.4-0.9-0.6
		c-0.5-0.3-0.9-0.6-1.2-0.8c-0.3-0.2-0.6-0.5-0.7-0.7c-0.2-0.2-0.3-0.5-0.4-0.8c-0.1-0.3-0.1-0.6-0.1-0.9c0-0.4,0.1-0.8,0.2-1.2
		c0.2-0.3,0.4-0.6,0.7-0.9c0.3-0.2,0.6-0.4,1-0.5c0.4-0.1,0.8-0.2,1.2-0.2c0.4,0,0.7,0,1.1,0.1c0.4,0.1,0.6,0.2,0.9,0.3V34.8z"/>
	<path class="st0" d="M148.8,34.4h-2.5v-1.2h6.4v1.2h-2.5v9.7h-1.4V34.4z"/>
	<path class="st0" d="M155.1,33.2h2.8c0.6,0,1,0.1,1.4,0.2c0.3,0.1,0.6,0.3,0.9,0.6c0.3,0.3,0.5,0.6,0.6,0.9
		c0.1,0.4,0.2,0.7,0.2,1.1c0,0.3,0,0.6-0.1,0.8c-0.1,0.3-0.2,0.5-0.4,0.8c-0.2,0.2-0.4,0.4-0.7,0.6c-0.3,0.2-0.6,0.3-1,0.4v0
		c0.3,0.1,0.6,0.2,0.8,0.3c0.2,0.2,0.3,0.4,0.4,0.7l1.5,4.4H160l-1.2-3.7c-0.2-0.4-0.4-0.8-0.6-1c-0.2-0.2-0.6-0.3-1.1-0.3h-0.6v4.9
		h-1.4V33.2z M156.4,38h1.1c0.4,0,0.7-0.1,0.9-0.2c0.3-0.1,0.5-0.3,0.6-0.4c0.2-0.2,0.3-0.4,0.4-0.6c0.1-0.2,0.1-0.5,0.1-0.7
		c0-0.6-0.2-1.1-0.5-1.4c-0.4-0.3-0.8-0.4-1.4-0.4h-1.1V38z"/>
	<path class="st0" d="M170.6,40.1c0,0.3,0,0.5,0,0.7c0,0.2,0,0.4-0.1,0.6c0,0.2-0.1,0.4-0.1,0.6c-0.1,0.2-0.1,0.4-0.2,0.5
		c-0.1,0.2-0.3,0.4-0.4,0.6c-0.2,0.2-0.4,0.4-0.6,0.5c-0.2,0.2-0.5,0.3-0.8,0.4c-0.3,0.1-0.7,0.1-1.1,0.1c-0.4,0-0.8,0-1.1-0.1
		c-0.3-0.1-0.6-0.2-0.8-0.4s-0.5-0.3-0.6-0.5c-0.2-0.2-0.3-0.4-0.4-0.6c-0.1-0.2-0.2-0.4-0.2-0.5c-0.1-0.2-0.1-0.4-0.1-0.6
		c0-0.2-0.1-0.4-0.1-0.6c0-0.2,0-0.5,0-0.7v-6.9h1.4v7.1c0,0.9,0.2,1.5,0.5,2c0.4,0.5,0.9,0.8,1.5,0.8c0.7,0,1.2-0.3,1.5-0.8
		c0.4-0.5,0.5-1.2,0.5-2v-7.1h1.4V40.1z M165.3,30.5h1.2v1.6h-1.2V30.5z M167.8,30.5h1.2v1.6h-1.2V30.5z"/>
	<path class="st0" d="M173.6,33.2h2.8c0.5,0,1,0.1,1.4,0.2c0.4,0.1,0.7,0.3,0.9,0.6c0.2,0.2,0.4,0.5,0.5,0.9
		c0.1,0.3,0.2,0.7,0.2,1.1c0,0.6-0.2,1.1-0.5,1.5c-0.3,0.4-0.8,0.7-1.3,0.9v0c0.6,0.1,1.1,0.4,1.5,0.8c0.4,0.5,0.6,1.1,0.6,1.9
		c0,0.4-0.1,0.7-0.2,1.1c-0.1,0.4-0.3,0.7-0.6,1c-0.3,0.3-0.6,0.5-1.1,0.7c-0.4,0.2-0.9,0.2-1.5,0.2h-2.6V33.2z M175,37.9h0.8
		c0.8,0,1.3-0.2,1.7-0.5c0.4-0.3,0.5-0.8,0.5-1.4c0-0.5-0.2-0.9-0.5-1.2c-0.3-0.3-0.8-0.5-1.5-0.5h-1V37.9z M175,42.9h1.2
		c0.4,0,0.7-0.1,0.9-0.2c0.3-0.1,0.5-0.2,0.7-0.4c0.2-0.2,0.3-0.4,0.4-0.6c0.1-0.2,0.1-0.5,0.1-0.7c0-0.6-0.2-1-0.5-1.4
		c-0.3-0.4-0.8-0.6-1.5-0.6H175V42.9z"/>
	<path class="st0" d="M182,33.2h1.4v10.9H182V33.2z"/>
	<path class="st0" d="M186.4,33.2h1.7l4.1,9h0v-9h1.3v10.9h-1.7l-4.1-8.9h0v8.9h-1.3V33.2z"/>
	<path class="st0" d="M203.7,43.6c-0.2,0.1-0.3,0.1-0.6,0.2c-0.2,0.1-0.4,0.1-0.7,0.2c-0.2,0.1-0.5,0.1-0.7,0.1
		c-0.3,0-0.5,0.1-0.7,0.1c-0.9,0-1.6-0.2-2.2-0.5c-0.6-0.3-1.1-0.7-1.5-1.2c-0.4-0.5-0.7-1.1-0.9-1.8c-0.2-0.7-0.3-1.4-0.3-2.1
		c0-0.9,0.1-1.6,0.4-2.3c0.2-0.7,0.6-1.3,1-1.7c0.4-0.5,0.9-0.8,1.5-1.1c0.6-0.3,1.2-0.4,1.9-0.4c0.5,0,0.9,0,1.3,0.1
		c0.4,0.1,0.8,0.2,1.2,0.4v1.4c-0.4-0.2-0.8-0.4-1.3-0.5c-0.4-0.1-0.9-0.2-1.3-0.2c-0.4,0-0.9,0.1-1.3,0.3c-0.4,0.2-0.8,0.4-1.1,0.8
		c-0.3,0.3-0.6,0.8-0.7,1.3c-0.2,0.5-0.3,1.1-0.3,1.8c0,0.7,0.1,1.3,0.2,1.9c0.1,0.6,0.4,1.1,0.6,1.5c0.3,0.4,0.7,0.7,1.1,0.9
		c0.4,0.2,1,0.3,1.5,0.3c0.2,0,0.5,0,0.7-0.1c0.3-0.1,0.5-0.1,0.6-0.2v-3.4h-1.8v-1.2h3.1V43.6z"/>
</g>
</svg>
